/* XPM */
static char *bitcoin32[] = {
/* columns rows colors chars-per-pixel */
"32 32 196 2 ",
"   c #342D1C",
".  c #3D3218",
"X  c #2E281A",
"o  c #423515",
"O  c #463915",
"+  c #4A3C16",
"@  c #41371C",
"#  c #44391B",
"$  c #4B3D1B",
"%  c #483E23",
"&  c #4F401A",
"*  c #514117",
"=  c #54441C",
"-  c #5C4B1E",
";  c #59471B",
":  c #65511F",
">  c #4E4122",
",  c #534522",
"<  c #5B4B22",
"1  c #574821",
"2  c #645222",
"3  c #6A5624",
"4  c #6E5924",
"5  c #67562A",
"6  c #6D5B2C",
"7  c #745D23",
"8  c #715E2C",
"9  c #6A5A31",
"0  c #705E30",
"q  c #776025",
"w  c #7B6326",
"e  c #76612C",
"r  c #7C652A",
"t  c #746234",
"y  c #796532",
"u  c #7E6934",
"i  c #826927",
"p  c #846B2B",
"a  c #8A6F29",
"s  c #816727",
"d  c #8C722B",
"f  c #8D7127",
"g  c #93762C",
"h  c #96792C",
"j  c #9B7D2C",
"k  c #836C31",
"l  c #806C38",
"z  c #877035",
"x  c #8C7332",
"c  c #8F793E",
"v  c #887239",
"b  c #917631",
"n  c #967B34",
"m  c #9C7F32",
"M  c #937C3D",
"N  c #987E3A",
"B  c #927C42",
"V  c #897542",
"C  c #9C833F",
"Z  c #A4842E",
"A  c #AC8A2D",
"S  c #B28E2D",
"D  c #B5912F",
"F  c #BA942F",
"G  c #BF982D",
"H  c #A48534",
"J  c #A78936",
"K  c #AB8B34",
"L  c #A68A39",
"P  c #AA8C3B",
"I  c #AF903B",
"U  c #B59233",
"Y  c #BB9630",
"T  c #BF9A33",
"R  c #B5953D",
"E  c #BE9B3A",
"W  c #C39D31",
"Q  c #C19E3C",
"!  c #C7A033",
"~  c #CAA335",
"^  c #C6A13A",
"/  c #CBA63C",
"(  c #CFA837",
")  c #D3AB3D",
"_  c #9A8653",
"`  c #AD8F40",
"'  c #AC9249",
"]  c #BB9B44",
"[  c #B6994C",
"{  c #B39545",
"}  c #A3905A",
"|  c #B89D56",
" . c #BCA25C",
".. c #B9A05B",
"X. c #AA9867",
"o. c #AD9D71",
"O. c #BAA363",
"+. c #BCA66A",
"@. c #BFA96B",
"#. c #BDA973",
"$. c #B6A67A",
"%. c #B9A877",
"&. c #C09F46",
"*. c #C4A244",
"=. c #CEA944",
"-. c #C1A24D",
";. c #C9A74C",
":. c #CCAA4C",
">. c #C8A647",
",. c #D2AC45",
"<. c #D1AD4B",
"1. c #D5B14E",
"2. c #C1A557",
"3. c #C9AA55",
"4. c #C2A65B",
"5. c #C5A95B",
"6. c #CAAC5B",
"7. c #D1AE50",
"8. c #CEB05E",
"9. c #D4B153",
"0. c #D8B655",
"q. c #D5B45C",
"w. c #D8B659",
"e. c #C4AB63",
"r. c #C4AC6A",
"t. c #C0A762",
"y. c #CEB263",
"u. c #CBB26C",
"i. c #D2B463",
"p. c #D7B965",
"a. c #D9BA63",
"s. c #D1B66C",
"d. c #DABD6C",
"f. c #C2AD72",
"g. c #C1AE7A",
"h. c #C4B17E",
"j. c #CEB87B",
"k. c #CBB77E",
"l. c #D9BE72",
"z. c #D2BB78",
"x. c #D8BF7C",
"c. c #D7BD76",
"v. c #DDC06E",
"b. c #DEC378",
"n. c #E0C57C",
"m. c #BAAB82",
"M. c #BEB189",
"N. c #C3B285",
"B. c #C6B68B",
"V. c #CBBA8E",
"C. c #C9B887",
"Z. c #D1BC85",
"A. c #D2BF8B",
"S. c #CBBC94",
"D. c #C9BC97",
"F. c #D6C082",
"G. c #D9C282",
"H. c #DEC788",
"J. c #CFC098",
"K. c #DAC792",
"L. c #D3C49C",
"P. c #D8C796",
"I. c #E2CB8B",
"U. c #E2CA85",
"Y. c #E2CD91",
"T. c #E6D29D",
"R. c #E7D29A",
"E. c #CFC2A0",
"W. c #D2C5A3",
"Q. c #D5C8A4",
"!. c #D4C8A8",
"~. c #D9CCAA",
"^. c #DCCCA2",
"/. c #DED0AB",
"(. c #DFD3B4",
"). c #E1CFA0",
"_. c #E3D4AD",
"`. c #EAD9AA",
"'. c #E8D6A4",
"]. c #EADBB3",
"[. c #ECDFBA",
"{. c #E2D7B8",
"}. c #EEE0BC",
"|. c #F2E2B8",
" X c #E6DDC2",
".X c #E8DFC4",
"XX c #EDE2C3",
"oX c #EEE4CA",
"OX c #F2E5C4",
"+X c #F2E7CA",
"@X c #F3E9CD",
"#X c #F4EBD2",
"$X c #F7EFD9",
"%X c #F0E7D0",
"&X c #F8F0DA",
"*X c None",
/* pixels */
"*X*X*X*X*X*X*X*X*X*X*X*X*X*X*X*X*X*X*X*X*X*X*X*X*X*X*X*X*X*X*X*X",
"*X*X*X*X*X*X*X*X*X*X*Xo.M.D.W.Q.W.S.N.$.} *X*X*X*X*X*X*X*X*X*X*X",
"*X*X*X*X*X*X*X*X*Xm.!..X#X#X#X@XOXOX}.].P.h.} *X*X*X*X*X*X*X*X*X",
"*X*X*X*X*X*X*Xo.!.%X$X$X#X@XoXXX}.}.].`.`.`.K.+.V *X*X*X*X*X*X*X",
"*X*X*X*X*X*Xm..X&X#X#X.X(.^.S.S.V.V.J.P.'.R.Y.I.u.B *X*X*X*X*X*X",
"*X*X*X*X*XN.%X$X#XoX~.S.B.V.S.D.S.N.f.#.f.G.I.b.b.y.M *X*X*X*X*X",
"*X*X*X*Xm.%X#X#X XS.B.W.~.]._.#.f.A.K.Z.f.O.r.l.l.d.3.u *X*X*X*X",
"*X*X*Xo..X$X#X(.B.S.{.[.}.|.L. .a.b.Z.j.z.u.| | q.q.0.] *X*X*X*X",
"*X*X*XW.$X@X{.B.D.[._._.^.g.O.8.a.5. .e.s.v.8.[ [ ;.:.) h *X*X*X",
"*X*X$.oX+XoXD.S.[.~.Q.B. .8.p.q.9.9.=.] s.p.q.;.' R / ( Y 1 *X*X",
"*X*XW.@X+X~.N./.`.L.C.2.p.a.d.l.p.q.=.d.d.9.9.1.Q P D W Y i *X*X",
"*XX.{.OX[.V.S.].J.V. .a.p.b.h.f.#. .y.p.9.9.:./ ~ K j A U g *X*X",
"*X$.}.OX_.N.^.).K.O.q.q.G.%.z.b.d.y.q.7.1.=./ ! W U b j Z h $ *X",
"*XN.}.}.L.%.).P.C.2.0.d.#.c.d.p.q.0.1.:./ ~ ! G F A b d j g 1 *X",
"*XB.[.].K.g.T.A.r.3.0.u.r.v.p.q.0.] m Z h h f h A Z x i d d < *X",
"*XC.`.`.C.f.Y.G.+.>.1.4.e.a.9.9.>.g A Z Z j g Z Z Z a w i i < *X",
"*XN.`.T.k.#.U.U.t.^ ,.-.-.w.<.,.K R { L H g a m j g p 8 7 7 < *X",
"*Xf.T.R.k.+.x.n.e.Q ( Q ` <.,./ ~ ^ Q P N i p m a b 8 3 4 4 = *X",
"*XX.I.I.c.| s.l.i.R ~ G K K W W G S H M q i p N s k 6 : 3 : @ *X",
"*X_ Z.U.x.| 5.p.q.&.D T Z j Z J J C M 7 s 7 B r r y < : - < *X*X",
"*X*Xr.n.d.2.| 9.9.<.U A Z j g a p r 7 w 7 M v 8 k 5 = ; ; = *X*X",
"*X*X' d.p.3.{ &.,./ ~ U Z j g a i r q e B z 6 u 0 1 = * ; # *X*X",
"*X*Xy 4.w.7.{ ` ^ ! W F S J n p i k c B u 6 y t 1 = * + 1 *X*X*X",
"*X*X*XN 1.<.^ J J G Y A Z H h 7 7 d k 8 6 y t 1 $ + o , . *X*X*X",
"*X*X*X*XP ) ~ D j n Z Z Z h i r z i 7 y t 9 1 + + o $ % *X*X*X*X",
"*X*X*X*X= K W G A g k x b b x x v l t 9 < & + O o # , *X*X*X*X*X",
"*X*X*X*X*X$ j S Z j a r 8 8 8 6 5 2 1 = & # o . $ > *X*X*X*X*X*X",
"*X*X*X*X*X*X*Xi j h d p w 4 2 - 1 = = + O o # > % *X*X*X*X*X*X*X",
"*X*X*X*X*X*X*X*X- r p s 7 4 2 - ; * + O # > >   *X*X*X*X*X*X*X*X",
"*X*X*X*X*X*X*X*X*X*X$ 2 4 4 2 < - = 1 , >   *X*X*X*X*X*X*X*X*X*X",
"*X*X*X*X*X*X*X*X*X*X*X*X*X  % . . . X *X*X*X*X*X*X*X*X*X*X*X*X*X",
"*X*X*X*X*X*X*X*X*X*X*X*X*X*X*X*X*X*X*X*X*X*X*X*X*X*X*X*X*X*X*X*X"
};
