/* XPM */
static char *bitcoin16[] = {
/* columns rows colors chars-per-pixel */
"16 16 178 2 ",
"   c #3F361C",
".  c #473915",
"X  c #463917",
"o  c #40361E",
"O  c #453919",
"+  c #43381D",
"@  c #44391D",
"#  c #4A3D19",
"$  c #4B3D1A",
"%  c #4C3E18",
"&  c #4F401B",
"*  c #51421B",
"=  c #53431A",
"-  c #55441A",
";  c #52441D",
":  c #56461F",
">  c #5E4C1E",
",  c #5F4C1E",
"<  c #5D4C21",
"1  c #604F24",
"2  c #655324",
"3  c #6B5622",
"4  c #6F5923",
"5  c #6C5827",
"6  c #62532A",
"7  c #6A582B",
"8  c #6C5A2E",
"9  c #715B25",
"0  c #745E28",
"q  c #725E2D",
"w  c #7B6327",
"e  c #76612A",
"r  c #7A6329",
"t  c #7F6628",
"y  c #7F682D",
"u  c #7A6635",
"i  c #7E6934",
"p  c #816828",
"a  c #856C2A",
"s  c #876D2A",
"d  c #80692C",
"f  c #866D2C",
"g  c #8C7129",
"h  c #8D722B",
"j  c #92762B",
"k  c #91752D",
"l  c #95782B",
"z  c #94782E",
"x  c #95792F",
"c  c #967A2E",
"v  c #997B2B",
"b  c #9B7D2E",
"n  c #9C7D2C",
"m  c #9E7F2C",
"M  c #826C33",
"N  c #856E30",
"B  c #846D34",
"V  c #866F36",
"C  c #8B7232",
"Z  c #8E7633",
"A  c #907630",
"S  c #9F802C",
"D  c #A1812B",
"F  c #A4842D",
"G  c #A6852E",
"H  c #B3902F",
"J  c #B5912F",
"K  c #B8932D",
"L  c #BD972F",
"P  c #A78833",
"I  c #A98830",
"U  c #A88831",
"Y  c #B49131",
"T  c #B09035",
"R  c #B59437",
"E  c #B99532",
"W  c #B89534",
"Q  c #BC9836",
"!  c #B2923B",
"~  c #B4943C",
"^  c #C39C31",
"/  c #C49E33",
"(  c #C5A13C",
")  c #CEA83F",
"_  c #9F8642",
"`  c #BB9B43",
"'  c #B99A45",
"]  c #B79A49",
"[  c #BD9F4C",
"{  c #B6A474",
"}  c #BCA871",
"|  c #B7A87D",
" . c #CAA540",
".. c #C5A54D",
"X. c #D3AD45",
"o. c #D4AF48",
"O. c #D5AF48",
"+. c #C4A757",
"@. c #C6A855",
"#. c #CBAB51",
"$. c #C8A852",
"%. c #CEAD52",
"&. c #C8AB5B",
"*. c #CDAE58",
"=. c #D4B050",
"-. c #D5B355",
";. c #D4B459",
":. c #D5B55B",
">. c #D0B15D",
",. c #D4B45C",
"<. c #DAB85B",
"1. c #C3A962",
"2. c #C2AA65",
"3. c #C6AC65",
"4. c #CAAE61",
"5. c #CAAF67",
"6. c #C2AB6A",
"7. c #C8AF6A",
"8. c #CFB369",
"9. c #D0B261",
"0. c #D4B662",
"q. c #D0B467",
"w. c #D6B764",
"e. c #DCBC66",
"r. c #D6BA6D",
"t. c #C8B173",
"y. c #CCB473",
"u. c #C8B277",
"i. c #CDB779",
"p. c #CEB87C",
"a. c #D4BA72",
"s. c #D0B875",
"d. c #BDAD81",
"f. c #CEBA83",
"g. c #CBB884",
"h. c #CDBA87",
"j. c #CFBD8A",
"k. c #CABA8F",
"l. c #C0B490",
"z. c #C7B993",
"x. c #CABD9A",
"c. c #D9C180",
"v. c #DCC585",
"b. c #D7C38D",
"n. c #DAC68E",
"m. c #CFC098",
"M. c #D1C196",
"N. c #D3C49A",
"B. c #D0C29D",
"V. c #D0C29E",
"C. c #D2C49F",
"Z. c #D9C99B",
"A. c #DCCA99",
"S. c #E3CC8A",
"D. c #E4D09B",
"F. c #CEC2A0",
"G. c #D1C5A4",
"H. c #D7C9A2",
"J. c #D9CAA1",
"K. c #DBCDA7",
"L. c #DCCDA6",
"P. c #E7D7AB",
"I. c #E0D3B0",
"U. c #E0D5B7",
"Y. c #E6D9B5",
"T. c #E8D9B0",
"R. c #E0D5B8",
"E. c #E0D6B9",
"W. c #E6DABA",
"Q. c #EADDB9",
"!. c #EBDEBB",
"~. c #EDE1C3",
"^. c #E9E0C5",
"/. c #EFE5CB",
"(. c #F3EBD3",
"). c #F4EAD0",
"_. c #F5ECD5",
"`. c None",
/* pixels */
"`.`.`.`.`.`.l.x.z.| `.`.`.`.`.`.",
"`.`.`.`.G.^./.~.Q.T.A.} `.`.`.`.",
"`.`.`.E._.E.C.m.k.j.n.S.2.`.`.`.",
"`.`.E.(.B.H.Y.g.y.h.6.1.e.] `.`.",
"`.F.).B.K.L.i.>.-.+.r.@.' ) j `.",
"`.W.I.N.J.3.w.s.4.:.:.O.R J D `.",
"`.Q.M.Z.t.,.p.a.0.%. ./ J c l `.",
"d.P.h.b.&.*.8.<.` F m v G f p : ",
"{ D.u.c.$.( ..X.W ~ A k c e 4 `.",
"`.v.8.q.#.K U Y T Z r C y 2 , `.",
"`.7.9.[ O.E m h p r B i 7 - * `.",
"`._ =.~ E E I a t V u 8 & %   `.",
"`.`.U ^ b x x N M q 6 # O + `.`.",
"`.`.`.g m a 0 5 1 ; . O o `.`.`.",
"`.`.`.`.< 9 3 , = # @ `.`.`.`.`.",
"`.`.`.`.`.`.`.`.`.`.`.`.`.`.`.`."
};
