/* XPM */
static char *bitcoin64[] = {
/* columns rows colors chars-per-pixel */
"64 64 226 2 ",
"   c #09090A",
".  c #17140E",
"X  c #1B1811",
"o  c #211D13",
"O  c #362A0D",
"+  c #2B2516",
"@  c #2A2415",
"#  c #352B13",
"$  c #3A2E12",
"%  c #342D1A",
"&  c #3D3213",
"*  c #3B311A",
"=  c #2C2208",
"-  c #423615",
";  c #463916",
":  c #4B3D16",
">  c #453A1C",
",  c #4C3E1A",
"<  c #41371B",
"1  c #4A3E21",
"2  c #4E401C",
"3  c #4F4017",
"4  c #53431B",
"5  c #58471B",
"6  c #5C4A1C",
"7  c #574515",
"8  c #624E1D",
"9  c #614B17",
"0  c #6B551D",
"q  c #67531D",
"w  c #735B1E",
"e  c #534623",
"r  c #5C4C23",
"t  c #584A26",
"y  c #534623",
"u  c #614F22",
"i  c #655322",
"p  c #6A5623",
"a  c #6E5924",
"s  c #64542C",
"d  c #6B5A2B",
"f  c #685728",
"g  c #735D24",
"h  c #715E2C",
"j  c #6B5C33",
"k  c #705E31",
"l  c #7B6326",
"z  c #76612B",
"x  c #7C6529",
"c  c #776026",
"v  c #7A6633",
"b  c #7C6A3A",
"n  c #796636",
"m  c #78601F",
"M  c #796A42",
"N  c #7F7049",
"B  c #846A26",
"V  c #806728",
"C  c #846B2A",
"Z  c #896F2A",
"A  c #866B25",
"S  c #8D722B",
"D  c #8D7126",
"F  c #927525",
"G  c #92762B",
"H  c #96792C",
"J  c #9B7D2C",
"K  c #9A7B25",
"L  c #846E35",
"P  c #826E3C",
"I  c #8B7334",
"U  c #88733C",
"Y  c #967C36",
"T  c #897645",
"R  c #927D42",
"E  c #937F4A",
"W  c #8C7D52",
"Q  c #9F802D",
"!  c #9D8135",
"~  c #9C823C",
"^  c #A4832D",
"/  c #A8872E",
"(  c #AC8B2E",
")  c #A88525",
"_  c #B18E2D",
"`  c #B5912E",
"'  c #BA942E",
"]  c #A48533",
"[  c #AC8B33",
"{  c #A2863A",
"}  c #A98A38",
"|  c #B39131",
" . c #BB9631",
".. c #BE9831",
"X. c #B8973C",
"o. c #B19036",
"O. c #C39D32",
"+. c #C09E3F",
"@. c #C29B2E",
"#. c #CAA334",
"$. c #CCA63C",
"%. c #CBA53A",
"&. c #D2AA3A",
"*. c #9C8444",
"=. c #9B854A",
"-. c #978248",
";. c #9A8857",
":. c #A48C4B",
">. c #A68B44",
",. c #AD9247",
"<. c #BB9D4D",
"1. c #B59847",
"2. c #A28E57",
"3. c #AB9453",
"4. c #A5915B",
"5. c #AB955C",
"6. c #AE995D",
"7. c #B39A55",
"8. c #B49C5A",
"9. c #BBA15B",
"0. c #AE9A63",
"q. c #AD9C6A",
"w. c #A79561",
"e. c #B29D64",
"r. c #B19F6C",
"t. c #AA9C76",
"y. c #A89768",
"u. c #BBA364",
"i. c #B4A16C",
"p. c #BCA66B",
"a. c #B5A373",
"s. c #B3A47B",
"d. c #BAA97B",
"f. c #BAA775",
"g. c #AEA17E",
"h. c #9B8C64",
"j. c #C19F42",
"k. c #C5A142",
"l. c #CBA641",
"z. c #CEA944",
"x. c #C5A44B",
"c. c #CEAB4B",
"v. c #C8A74C",
"b. c #D2AC44",
"n. c #D1AD4C",
"m. c #D7B24C",
"M. c #CCAC54",
"N. c #C6A959",
"B. c #D1AF51",
"V. c #D4B254",
"C. c #D4B45B",
"Z. c #DAB757",
"A. c #C6AD69",
"S. c #CDB36B",
"D. c #D5B662",
"F. c #D6B865",
"G. c #DABB65",
"H. c #D6B969",
"J. c #DABC6C",
"K. c #D1B669",
"L. c #C2AD73",
"P. c #C1AF7B",
"I. c #C9B379",
"U. c #D9BE73",
"Y. c #D5BC79",
"T. c #DFC06C",
"R. c #DCC174",
"E. c #DCC27B",
"W. c #E1C26C",
"Q. c #E2C678",
"!. c #BBAC84",
"~. c #B6A986",
"^. c #BFB18D",
"/. c #B8AC8E",
"(. c #C3B284",
"). c #C4B58B",
"_. c #CBB987",
"`. c #D1BE89",
"'. c #C3B693",
"]. c #CCBD94",
"[. c #C8BD9B",
"{. c #CABFA3",
"}. c #DDC583",
"|. c #D9C48A",
" X c #D3C49B",
".X c #D7C695",
"XX c #E3CA84",
"oX c #E2CB8C",
"OX c #E0C680",
"+X c #E3CD93",
"@X c #E2CE9A",
"#X c #E5D29C",
"$X c #EAD498",
"%X c #EAD18D",
"&X c #CDC2A3",
"*X c #DBCCA3",
"=X c #D7CAA6",
"-X c #DDD0AB",
";X c #DBD2B8",
":X c #E5D4A4",
">X c #EAD6A2",
",X c #ECD9A5",
"<X c #E4D4AA",
"1X c #EAD9AD",
"2X c #E8D7AB",
"3X c #EBDCB3",
"4X c #EBDEBA",
"5X c #E3D7B7",
"6X c #F1DEAA",
"7X c #EEE1BD",
"8X c #F2E3BC",
"9X c #F8E6B7",
"0X c #F3E0AA",
"qX c #E5DCC3",
"wX c #EEE3C3",
"eX c #EDE4CB",
"rX c #F2E5C4",
"tX c #F0E6CC",
"yX c #F3E9CD",
"uX c #F6E9C5",
"iX c #F3EAD2",
"pX c #F6EDD7",
"aX c #FAF2DC",
"sX c #EFE8D2",
"dX c #FEF6E0",
"fX c None",
/* pixels */
"fXfXfXfXfXfXfXfXfXfXfXfXfXfXfXfXfXfXfXfXfXfXfXfXfXfXfXfXfXfXfXfXfXfXfXfXfXfXfXfXfXfXfXfXfXfXfXfXfXfXfXfXfXfXfXfXfXfXfXfXfXfXfXfX",
"fXfXfXfXfXfXfXfXfXfXfXfXfXfXfXfXfXfXfXfXfXfXfXfXfXfXfXfXfXfXfXfXfXfXfXfXfXfXfXfXfXfXfXfXfXfXfXfXfXfXfXfXfXfXfXfXfXfXfXfXfXfXfXfX",
"fXfXfXfXfXfXfXfXfXfXfXfXfXfXfXfXfXfXfXfXfXfXfXfXw.0.q.a.s.s.!.!.d.d.a.i.q.q.4.fXfXfXfXfXfXfXfXfXfXfXfXfXfXfXfXfXfXfXfXfXfXfXfXfX",
"fXfXfXfXfXfXfXfXfXfXfXfXfXfXfXfXfXfXfXfXfX0.q.s.^.&X;XqXeXiXiXiXyXtXwX5X-X].(.a.0.4.;.fXfXfXfXfXfXfXfXfXfXfXfXfXfXfXfXfXfXfXfXfX",
"fXfXfXfXfXfXfXfXfXfXfXfXfXfXfXfXfXfXfXq.r.'.;XsXaXaXpXyXyXeXwXrX7XwX7X8X8XrX7X4X*X(.e.3.2.fXfXfXfXfXfXfXfXfXfXfXfXfXfXfXfXfXfXfX",
"fXfXfXfXfXfXfXfXfXfXfXfXfXfXfXfXfXe.a.{.eXaXpXiXeXsXyXtXtXrXtXwXwXwX4X4X3X3X3X2X1X8X2X`.e.3.;.fXfXfXfXfXfXfXfXfXfXfXfXfXfXfXfXfX",
"fXfXfXfXfXfXfXfXfXfXfXfXfXfXfXe.t.{.sXaXiXsXsXiXiXyXeXwXwXrX7X4X4X4X4X4X3X3X1X2X:X:X>X,X>X_.5.3.fXfXfXfXfXfXfXfXfXfXfXfXfXfXfXfX",
"fXfXfXfXfXfXfXfXfXfXfXfXfXfX0.~.qXaXiXsXiXiXiXtXeXeXrXyXyXyXyXuXrXuX7X4X2X2X2X2X:X:X#X#X+X#X+Xp.:.-.fXfXfXfXfXfXfXfXfXfXfXfXfXfX",
"fXfXfXfXfXfXfXfXfXfXfXfXa.q.{.aXpXtXsXiXiXtXrXsXiXpXiX;X5X'.=X~.=X^.-X=X7X7X2X1X#X#X#X+X+X|.+X%XI.:.*.fXfXfXfXfXfXfXfXfXfXfXfXfX",
"fXfXfXfXfXfXfXfXfXfXfXi.q.;XaXsXiXiXiXsXrXiXaXqX;Xs.(.y._.f.`.L..Xu.(.5.d.5..X.X0X,X+X+X+XoXXX}.XXE.3.~ fXfXfXfXfXfXfXfXfXfXfXfX",
"fXfXfXfXfXfXfXfXfXfXf.q.qXaXsXiXsXiXtXsXdXqX/.a.P..X<X*X=X].'.).).].(..X(.oXi.8.d.I.>X+X}.}.}.E.E.Q.R.3.~ fXfXfXfXfXfXfXfXfXfXfX",
"fXfXfXfXfXfXfXfXfXi.q.eXpXsXiXiXtXtXaXsX~.~._.1X=X'.~.~.^.'. X=X.X]._.d.s.d.p.#X8.I.4.E.$X}.E.R.R.U.U.J.3.Y fXfXfXfXfXfXfXfXfXfX",
"fXfXfXfXfXfXfXfXi.q.qXpXiXiXsXeXtXdX{.s.(.1X{.~.~.=X3X8X8X3X X].].]..X$X:X|.d.0.L._.9.L.6.Q.Q.J.U.J.H.H.H.>.I fXfXfXfXfXfXfXfXfX",
"fXfXfXfXfXfXfXfXq.;XaXsXiXiXyXiXsX'.a.:X=X~.'.4XrX8X3X2X1X XR 7.3.:.8.@X.X#X$XoXL.3.I.9.9.p.A.W.J.H.H.D.D.V.{ z fXfXfXfXfXfXfXfX",
"fXfXfXfXfXfXfX0.[.aXeXiXiXtXyXsX'.f.rX/.~.5XuX4X1X3X3X2X1X].7.Q.T.J.Q.|.e.i.L.}.%XOXu.5.Y.*.A.A.C.H.C.C.V.V.v.! fXfXfXfXfXfXfXfX",
"fXfXfXfXfXfXe.~.pXiXiXiXeXtXdXt.P.uXt.[.uX4X3X3X5X3X2X2X9X X,.T.D.D.J.$X$X}.A.5.u.Y.Q.S.>.H.3.{ G.V.C.V.V.n.m.1.C fXfXfXfXfXfXfX",
"fXfXfXfXfXfXq.qXpXtXtXtXtXpXt._.8Xt.-XuX3X4X<X3X2X3X3X Xd.;.7.T.D.D.M.4.e.`.%XQ.u.S.U.R.J.:.<.K.Y x.B.V.n.n.z.z.] r fXfXfXfXfXfX",
"fXfXfXfXfX0.'.aXtXtXtXrXiX{.P.4Xt.;XrX3X4X).].3X3X).4.=.7.N.G.D.C.D.V.x.,.~ =.L.Q.R.J.H.G.H.1.,.1.N.X.c.n.z.$.&.+.Z fXfXfXfXfXfX",
"fXfXfXfXfXr.eXiXtXtXrXpXqX4.3Xt.=XrX3X4X!.[.9X*Xh.:.M.J.T.G.D.D.C.V.V.V.m.m.k.J 7.R.G.F.D.C.V.1.N.C x.X.&.l.%.#.#./ 5 fXfXfXfXfX",
"fXfXfXfXq.'.pXeXtXwXtXqXt.2X'.'.rX1X3X~. X9X).E N.W.J.F.D.C.C.V.V.V.V.m.n.n.b.V.E.F.H.D.C.V.V.c.} M.>.( X.&.#.O.O.' x fXfXfXfXfX",
"fXfXfXfXr.5XiXtXrXqXiX=XL.*Xg.8X2X8X).].9X!.R J.J.F.F.F.C.V.B.B.V.B.n.z.n.z.$.}.J.D.D.V.V.V.n.V.k.[ ~ c./ #.O... . .H < fXfXfXfX",
"fXfXfXw.!.iXwXwXwXrX4Xw.:X~.*X4X4X X^.9X'.R W.J.F.G.C.V.F.Q.oX%X%XQ.Q.C.z.$.J.E.C.C.V.V.V.n.z.z.z. .k.Z ^ ( #. .' ` ( i fXfXfXfX",
"fXfXfX0.&XiXwXwXwXtX=X_.&X~.9X3X2Xs.3X XR G.G.D.F.V.D.oX>X|.p.q.5.0.u.H.H.C.}.C.V.V.V.B.n.z.l.l.$.#.) ,.X.K  .` _ _ ( x fXfXfXfX",
"fXfXfXi.5XrXwXwX4XrXq.`.~.*X3X3X).].0X;.N.J.D.D.V.H.,X|.h.w.a.P.L.A.5.-.<.J.C.C.V.V.V.c.b.b.l.$.#.#...H C Q ^ ` ( / / S * fXfXfX",
"fXfXfXf.wXwX7X4X7X5X(.:Xs.8X:X:Xs.,X(.>.W.D.D.V.K.1XL.;._.XXQ.Q.R.J.W.G.K.V.V.V.B.n.n.b.l.$.#.#.#.@.' / ,.K F _ / Q Q H 4 fXfXfX",
"fXfX;.).yX4X7X4XrX'.p.).).3X1X`.(.0X;.N.G.C.V.C.$XL.h.+XQ.U.U.H.H.G.D.D.V.V.V.B.n.n.l.$.$.#.#.O.....' ` g ~ A / ^ Q Q H u fXfXfX",
"fXfXw. XrX4X4X3XrX!..X!. X,X,Xd..X.X*.G.C.C.V.E.}.;.oXR.U.J.J.G.D.D.C.V.V.B.B.z.b.l.$.#.#.#.O...' ' ` ( { ~ l K Q H H H a fXfXfX",
"fXfXw.=XwX3X3X3X4Xr.|.a.#X>X#Xa.$Xf.1.Z.V.V.V.$X4.P.Q.U.J.H.H.D.C.C.V.V.Z.m.m.n.b.&.&.&.#.#.O.@.` _ ( | x I S Z ! G G S z X fXfX",
"fXfX0.-X4X3X3X3X2Xr.`.s.:X#X.Xf.,X4.x.C.V.n.H.Y.;.Q.H.J.H.F.D.C.V.V.m.v.Y J J J H H F F D Z A J ` ( ( ( J U B B H S S S x @ fXfX",
"fXfX0.-X4X1X1X1X*Xp.|.f.>X#X`.p.#X:.c.V.V.n.T.A.6.Q.H.G.D.D.C.V.V.B.m.C F J H H F S S D Z Z B / ( / ^ ] F v I g G Z B A x + fXfX",
"fXfXr.<X1X1X2X2X:Xq.P.f.$X$XI.L.%X=.n.V.n.z.W.6.8.W.F.D.C.C.V.V.M.m.{ A O.| | | [ / / ^ ^ K J | ] ^ K ] J z x g S C x x x + fXfX",
"fXfX0.<X1X,X:X,X.XL.`.f.#XoX}.}.}.=.n.n.n.l.G.7.<.J.D.C.V.V.B.B.m.k.g ` [ [ / ^ ] J J H H G S [ ^ K H ] S n I 0 Z x x l x # fXfX",
"fXfXe.*X2X:X:X,X.X5.f.p.%X}.}.}.}.*.z.n.z.&.Z.3.1.G.C.V.B.B.n.b.b.l K ( ) ^ K J J K J G G S G [ J Y G J G f h p V V V a g + fXfX",
"fXfX5. X,X#X#X$X.XL.}.i.+X}.}.E.Q.>.k.b.z.%.b.N.Y Z.B.B.n.n.b.b.o.*.M.<.<.<.<.X.>.,.G G S C I o.H G S J V L V u V g g a g @ fXfX",
"fXfX5.|.$X#X#X.X$X4.p.e.}.E.E.E.Q.2.X.b.$.#.O.B.Y x.B.n.n.z.z.%.%.l.l.l.k.O.k.Y <.S V G C V J o.S G Z Y g p p i g a a p g o fXfX",
"fXfX2._.$X@X%X@X}.A.}.e.Y.E.R.U.Q.8.[ b.#.#.@.X.1.G m.z.z.&.%.%.#.@.@.' ` ` K T ,.9 C Z C V Y Y Z S Z Y a T i 0 g p i a p . fXfX",
"fXfX=.L.$X@XoX}.+Xp.:.u.L.E.U.J.J.F.{ #.#.#.#._ j.} G b.&.O.#.O.O.O. .| ' ) b 9.g a S V V V ,.S C V C R , g , g p p u p r fXfXfX",
"fXfXR p.+XoX}.oXOXS.Y.p.9.R.J.H.D.G.,.' O.O.@.' H j./ Z O.&.#.O.'  . .' K b 8.F 9 Z V V g Y >.V V V G I f U , a p 8 5 g , fXfXfX",
"fXfXfX5.}.oX}.}.E.R.Y N.9.H.G.H.D.D.v.^ O. .' ' _ A  . .Z H ( _ _ ) K C W 9.D 5 V V V V g 3.Z g g g Y a 6 u , 0 8 6 5 g * fXfXfX",
"fXfXfX:.I.XXE.E.E.D.S.p.1.N.G.C.C.V.m.1._  .' _ | ( l J O.X.Y Y R R ;.7.,.0 r B V V g w :.E w d V h E , T , 8 u 6 5 6 p X fXfXfX",
"fXfXfXR u.XXE.U.U.J.N.~ H.<.C.C.V.V.n.n.[ _ _ | ( ( ( Z g A J } } { S w 5 a C V g V p I 5.g a T 0 R z e i - q 5 5 4 i r fXfXfXfX",
"fXfXfXn ,.E.R.U.J.H.M.K.*.<.v.C.n.n.n.n.l.( ( ( / ( J ] J A g p p q p c Z Z V g V 0 L e.V 0 T g g -.$ n t 4 6 5 7 : a * fXfXfXfX",
"fXfXfXfX~ A.R.H.H.G.M.1.1.N.1.c.n.b.z.l.&.#.( / J J J H J J H G S S S C V g x g 0 U e.V i M L 9 =.s u d $ 6 4 3 , 5 f . fXfXfXfX",
"fXfXfXfXv 7.J.H.F.D.C.x.x.L z.k.b.z.$.#.#.O.O.| ( Y J H G G Z Z Z B V x V g 0 g 2.0.g p n P 9 T T O h ; : 5 4 3 - p > fXfXfXfXfX",
"fXfXfXfXfX*.N.G.D.V.C.c.o.C.*.| l.$.#.O.O.O.@.| ' | ] H Z Z Z Z B x l g w x -.0.E w i M P 7 P E = n r & 5 4 : : , d X fXfXfXfXfX",
"fXfXfXfXfXz 1.C.V.V.V.V.1.[ ~ x.| #.O.O.O. . ._ _ _ | o.} Y C V x l x R 4.5.=.g 0 d T L : L E - f u # 5 3 : : & d > fXfXfXfXfXfX",
"fXfXfXfXfXfXY <.C.n.n.z.b.} k.G Y #. .O. ._ _ _ [ / J J } Y p V l g I >.L g 0 f b T a , P 2.- , h & : : : ; & e s   fXfXfXfXfXfX",
"fXfXfXfXfXfX2 { c.n.b.b.$.$.H | x.g @.O.` _ _ [ / / J J K B u V g g Z B g g b T v 9 9 W E O , P # : 3 : ; - - h # fXfXfXfXfXfXfX",
"fXfXfXfXfXfXfXd X.z.l.$.%.#.O.K F <.Z D O.| ^ ^ J J K H H V 5 g g p B B g c c 9 6 b ;.j = j k = ; : ; ; ; $ j 1 fXfXfXfXfXfXfXfX",
"fXfXfXfXfXfXfXfXx X.$.#.#.#.O...F H Y ,.w / X.[ ^ H G S Z V U :.*.=.=.c q q p b ;.T ; $ n 5 # : : ; ; ; # r r   fXfXfXfXfXfXfXfX",
"fXfXfXfXfXfXfXfXfXZ X.#.O... .' ' F S G Y I i ] { o.{ G S C V x l c z v P -.-.N , O f k > # , : ; - ; # e f . fXfXfXfXfXfXfXfXfX",
"fXfXfXfXfXfXfXfXfXfXZ  .O.' ` ` ( | K l I B :.f g c C ~ Y >.*.*.*.-.-.T b r - & r n 4 & & 3 ; - - - O e j X fXfXfXfXfXfXfXfXfXfX",
"fXfXfXfXfXfXfXfXfXfX@ x ` ` ( [ / ^ ^ ^ B g c C :.i P , a 4 p 4 r , , ; : s i b 4 & & : , ; - - - # t j . fXfXfXfXfXfXfXfXfXfXfX",
"fXfXfXfXfXfXfXfXfXfXfXfXg / ( ( ^ ] J H H G x p 6 z x L L n v k h n h b i u < & - : 3 ; - - - & # s s X fXfXfXfXfXfXfXfXfXfXfXfX",
"fXfXfXfXfXfXfXfXfXfXfXfXfXi H / ^ J H G S S S Z V p 8 6 7 r 4 r e 4 ; - - - : 4 3 : ; ; < - # * j 1   fXfXfXfXfXfXfXfXfXfXfXfXfX",
"fXfXfXfXfXfXfXfXfXfXfXfXfXfX< x J H G S S Z A V x x l g a i u 6 5 6 5 5 5 5 3 : : ; - - $ * t j %   fXfXfXfXfXfXfXfXfXfXfXfXfXfX",
"fXfXfXfXfXfXfXfXfXfXfXfXfXfXfXX r Z H S B V x l l g g f p p i 8 6 5 5 7 , 4 : ; ; & $ & e j e . fXfXfXfXfXfXfXfXfXfXfXfXfXfXfXfX",
"fXfXfXfXfXfXfXfXfXfXfXfXfXfXfXfXfX+ i B Z B l g g p p p q 8 8 5 5 7 7 : : ; - & $ > t j t +   fXfXfXfXfXfXfXfXfXfXfXfXfXfXfXfXfX",
"fXfXfXfXfXfXfXfXfXfXfXfXfXfXfXfXfXfXfX+ e g C V g a p 8 6 5 5 3 , : ; - - ; , r j s e @   fXfXfXfXfXfXfXfXfXfXfXfXfXfXfXfXfXfXfX",
"fXfXfXfXfXfXfXfXfXfXfXfXfXfXfXfXfXfXfXfXfXX * e p c c g h p p i i i p f d d s e % . fXfXfXfXfXfXfXfXfXfXfXfXfXfXfXfXfXfXfXfXfXfX",
"fXfXfXfXfXfXfXfXfXfXfXfXfXfXfXfXfXfXfXfXfXfXfXfXfXo % > 2 e t t t e e > % o   fXfXfXfXfXfXfXfXfXfXfXfXfXfXfXfXfXfXfXfXfXfXfXfXfX",
"fXfXfXfXfXfXfXfXfXfXfXfXfXfXfXfXfXfXfXfXfXfXfXfXfXfXfXfXfXfXfXfXfXfXfXfXfXfXfXfXfXfXfXfXfXfXfXfXfXfXfXfXfXfXfXfXfXfXfXfXfXfXfXfX",
"fXfXfXfXfXfXfXfXfXfXfXfXfXfXfXfXfXfXfXfXfXfXfXfXfXfXfXfXfXfXfXfXfXfXfXfXfXfXfXfXfXfXfXfXfXfXfXfXfXfXfXfXfXfXfXfXfXfXfXfXfXfXfXfX",
"fXfXfXfXfXfXfXfXfXfXfXfXfXfXfXfXfXfXfXfXfXfXfXfXfXfXfXfXfXfXfXfXfXfXfXfXfXfXfXfXfXfXfXfXfXfXfXfXfXfXfXfXfXfXfXfXfXfXfXfXfXfXfXfX"
};
